<?xml version="1.0" encoding="UTF-8" standalone="no"?>
<svg
   fill="#000000"
   viewBox="0 0 30 30"
   width="30px"
   height="30px"
   version="1.1"
   id="svg153"
   sodipodi:docname="icons8-facebook-circled.svg"
   inkscape:version="1.2.1 (9c6d41e410, 2022-07-14)"
   xmlns:inkscape="http://www.inkscape.org/namespaces/inkscape"
   xmlns:sodipodi="http://sodipodi.sourceforge.net/DTD/sodipodi-0.dtd"
   xmlns="http://www.w3.org/2000/svg"
   xmlns:svg="http://www.w3.org/2000/svg">
  <defs
     id="defs157" />
  <sodipodi:namedview
     id="namedview155"
     pagecolor="#ffffff"
     bordercolor="#000000"
     borderopacity="0.25"
     inkscape:showpageshadow="2"
     inkscape:pageopacity="0.0"
     inkscape:pagecheckerboard="0"
     inkscape:deskcolor="#d1d1d1"
     showgrid="false"
     inkscape:zoom="7.8666667"
     inkscape:cx="-15.635593"
     inkscape:cy="15.063559"
     inkscape:window-width="1440"
     inkscape:window-height="780"
     inkscape:window-x="0"
     inkscape:window-y="27"
     inkscape:window-maximized="1"
     inkscape:current-layer="svg153" />
  <path
     d="M15,3C8.373,3,3,8.373,3,15c0,6.627,5.373,12,12,12s12-5.373,12-12C27,8.373,21.627,3,15,3z M19.181,11h-1.729 C16.376,11,16,11.568,16,12.718V14h3.154l-0.428,3H16v7.95C15.671,24.982,15.338,25,15,25c-0.685,0-1.354-0.07-2-0.201V17h-3v-3h3 v-1.611C13,9.339,14.486,8,17.021,8c1.214,0,1.856,0.09,2.16,0.131V11z"
     id="path151"
     style="fill:#ffffff;fill-opacity:1" />
</svg>
