<?xml version="1.0" encoding="UTF-8" standalone="no"?>
<!-- Svg Vector Icons : http://www.onlinewebfonts.com/icon -->

<svg
   version="1.1"
   x="0px"
   y="0px"
   viewBox="0 0 1000 1000"
   enable-background="new 0 0 1000 1000"
   xml:space="preserve"
   id="svg24"
   sodipodi:docname="lang_switch.svg"
   inkscape:version="1.2.1 (9c6d41e410, 2022-07-14)"
   xmlns:inkscape="http://www.inkscape.org/namespaces/inkscape"
   xmlns:sodipodi="http://sodipodi.sourceforge.net/DTD/sodipodi-0.dtd"
   xmlns="http://www.w3.org/2000/svg"
   xmlns:svg="http://www.w3.org/2000/svg"><defs
   id="defs28" /><sodipodi:namedview
   id="namedview26"
   pagecolor="#ffffff"
   bordercolor="#000000"
   borderopacity="0.25"
   inkscape:showpageshadow="2"
   inkscape:pageopacity="0.0"
   inkscape:pagecheckerboard="0"
   inkscape:deskcolor="#d1d1d1"
   showgrid="false"
   inkscape:zoom="0.236"
   inkscape:cx="269.0678"
   inkscape:cy="502.11864"
   inkscape:window-width="1440"
   inkscape:window-height="830"
   inkscape:window-x="-6"
   inkscape:window-y="-6"
   inkscape:window-maximized="1"
   inkscape:current-layer="svg24" />
<metadata
   id="metadata16"> Svg Vector Icons : http://www.onlinewebfonts.com/icon </metadata>
<g
   id="g22"
   style="fill:#ffffff;fill-opacity:1"><g
     transform="translate(0.000000,512.000000) scale(0.100000,-0.100000)"
     id="g20"
     style="fill:#ffffff;fill-opacity:1"><path
       d="M4541.7,4999.5c-392.5-36.4-890.2-147.4-1236.8-275.7c-239.3-88.1-719.9-321.6-907.5-442.3C1784.8,3891,1229.6,3335.8,839,2723.2c-120.6-187.6-354.2-668.2-442.3-907.5C213,1316,100,672.7,100,119.4c0-553.3,111-1192.7,296.7-1696.3c86.2-235.5,319.7-716,442.3-907.5c388.6-612.6,945.8-1167.9,1558.4-1558.4c187.6-120.6,668.2-354.2,907.5-442.2c771.6-285.3,1679-367.6,2519.5-227.8c471,78.5,892.2,214.4,1349.7,438.4c968.7,471,1746,1250.2,2220.8,2220.8c224,455.7,359.9,876.8,438.4,1349.7c139.8,840.5,57.4,1748-227.8,2519.5c-88.1,239.3-321.6,719.9-442.2,907.5c-390.6,612.6-945.8,1169.8-1558.4,1558.4c-191.5,122.5-672,356.1-907.5,442.3C6050.3,4961.2,5236.6,5066.5,4541.7,4999.5z M4599.1,3312.8v-748.6l-291,13.4c-296.8,11.5-708.4,47.9-721.8,61.3c-13.4,11.5,55.5,178,162.7,400.1c122.5,256.5,327.4,568.6,478.6,735.2c107.2,116.8,317.8,289.1,354.2,289.1C4591.5,4063.3,4599.1,3739.8,4599.1,3312.8z M5548.7,3981c237.4-174.2,488.2-509.3,693.1-922.8c116.8-235.5,187.6-405.9,174.2-419.3c-13.4-13.4-425-49.8-719.9-61.3l-292.9-13.4v748.6c0,426.9,7.7,750.5,17.2,750.5C5430,4063.3,5487.5,4027,5548.7,3981z M3393,3820.2c-202.9-227.8-461.4-670.1-566.7-976.4c-26.8-76.6-45.9-101.5-74.7-101.5c-128.3,0-695,105.3-725.6,134c-9.6,9.6,51.7,86.2,143.6,176.1c298.7,294.8,654.8,545.6,1070.2,756.2c132.1,65.1,241.2,120.6,245.1,120.6C3488.7,3929.3,3446.6,3879.5,3393,3820.2z M6896.5,3741.7c197.2-109.1,436.5-266.1,612.7-404c201-157,488.2-440.3,467.1-461.4c-30.6-28.7-599.3-134-725.6-134c-28.7,0-47.9,24.9-74.7,101.5c-105.3,300.6-367.6,754.3-566.7,974.5l-97.6,109.1l130.2-59.4C6712.8,3837.4,6827.6,3780,6896.5,3741.7z M1729.3,2129.7c120.6-30.6,352.3-84.2,515-114.9c162.7-32.5,296.7-61.3,298.7-63.2c1.9-1.9-11.5-72.8-32.6-157C2433.8,1473,2340,785.7,2340,548.3c0-23-122.5-26.8-691.1-26.8H955.8l13.4,168.5c26.8,363.8,155.1,783,369.5,1211.9c78.5,157,149.3,285.3,157,285.3C1505.3,2187.1,1610.6,2162.2,1729.3,2129.7z M8663.6,1901.8c214.4-428.9,342.7-848.1,369.5-1211.9l13.4-168.5h-693.1c-568.6,0-691.1,3.8-691.1,26.8c0,237.4-93.8,924.7-170.4,1246.4c-21.1,84.2-36.4,155.1-34.5,157c1.9,1.9,155.1,32.5,338.9,70.8c183.8,38.3,407.8,88.1,497.8,114.9c90,24.9,178,45.9,195.3,47.9C8512.4,2187.1,8562.2,2106.7,8663.6,1901.8z M3814.2,1785.1c183.8-9.6,436.5-23,561-30.6l224-11.5l-3.8-605l-5.7-606.9l-716-5.7l-716-3.8l13.4,233.6c19.1,340.8,78.5,739,147.4,997.5c19.1,70.8,21.1,72.8,90,63.2C3446.6,1809.9,3630.4,1796.5,3814.2,1785.1z M6684,1752.5c68.9-258.5,128.3-658.6,147.4-997.5l13.4-233.6l-716,3.8l-716,5.7l-5.7,606.9l-3.8,605l224,11.5c509.2,26.8,934.3,55.5,941.9,61.3c3.8,3.8,28.7,7.7,51.7,7.7C6655.3,1823.3,6668.7,1808,6684,1752.5z M2347.6-449.2c26.8-375.2,139.8-1093.2,195.3-1238.7c7.7-21-7.7-32.5-63.2-40.2c-229.7-42.1-650.9-132.1-794.5-172.3c-91.9-26.8-174.2-47.9-185.7-47.9c-9.6,0-82.3,128.3-160.8,285.3C1124.3-1234.2,996-814.9,969.2-449.2l-13.4,166.6h691.1h689.2L2347.6-449.2z M4595.3-897.2l3.8-606.9l-243.1-11.5c-135.9-7.7-417.4-24.9-628-38.3c-260.4-17.2-386.7-19.1-396.3-5.7c-44,70.8-141.7,695-160.8,1043.4l-13.4,233.6l716-3.8l716-5.7L4595.3-897.2z M6831.4-516.2c-19.1-348.4-116.8-972.6-160.8-1043.4c-9.6-13.4-135.9-11.5-396.3,5.7c-210.6,13.4-492,30.6-626.1,38.3l-245,11.5v597.3c0,329.3,5.7,605,13.4,610.7c5.7,7.7,331.2,13.4,719.9,13.4h708.4L6831.4-516.2z M9035.1-439.6c-13.4-204.9-76.6-488.2-158.9-731.3c-78.5-227.8-344.6-777.3-377.2-777.3c-13.4,0-78.5,17.2-147.4,38.3c-68.9,21.1-296.8,74.7-507.3,116.8c-210.6,42.1-384.8,80.4-386.7,80.4c-1.9,1.9,13.4,72.7,34.5,157c76.6,321.6,170.4,1009,170.4,1246.3c0,23,122.5,26.8,691.1,26.8h693.1L9035.1-439.6z M4599.1-3077.8c0-423.1-7.7-746.7-17.2-746.7c-34.5,0-245.1,168.5-342.7,275.7c-199.1,218.2-396.3,534.1-551.4,874.9c-130.2,291-130.2,277.6,24.9,294.8c197.2,21,511.2,42.1,710.3,44l176.1,3.8V-3077.8z M6197.7-2371.4c116.8-11.5,214.4-24.9,218.3-28.7c13.4-13.4-57.4-183.8-174.2-419.3c-204.9-413.5-455.7-748.6-693.1-922.8c-61.3-45.9-118.7-82.3-128.3-82.3c-9.6,0-17.2,323.6-17.2,750.5v748.6l292.9-13.4C5855-2344.6,6082.9-2359.9,6197.7-2371.4z M2826.3-2603c105.3-302.5,327.4-693.1,526.5-928.6c65.1-76.6,113-139.7,109.1-139.7c-5.8,0-72.8,28.7-149.3,63.2c-206.8,95.7-545.6,302.5-763.9,465.2c-227.8,172.3-547.6,480.5-522.7,503.5c30.6,30.6,553.3,128.3,706.5,134C2786.1-2503.5,2793.7-2511.1,2826.3-2603z M7480.5-2532.2c239.3-34.5,472.9-84.3,495.9-105.3c22.9-21-271.9-310.2-484.4-474.8c-97.6-76.6-256.5-187.6-352.3-247c-170.4-105.3-562.9-312.1-593.5-312.1c-7.7,0,38.3,63.2,103.4,139.7c63.2,74.7,164.6,216.3,224,310.2c105.3,168.5,294.8,562.9,319.7,666.2C7208.6-2493.9,7218.2-2493.9,7480.5-2532.2z"
       id="path18"
       style="fill:#ffffff;fill-opacity:1" /></g></g>
</svg>
